<svg xmlns="http://www.w3.org/2000/svg" width="24" height="24" viewBox="0 0 24 24"><g class="nc-icon-wrapper" fill="#0066ff"><path d="M18,15H6a3,3,0,0,0,0,6H18a3,3,0,0,0,0-6ZM7,19a1,1,0,1,1,1-1A1,1,0,0,1,7,19Zm5,0a1,1,0,1,1,1-1A1,1,0,0,1,12,19Zm5,0a1,1,0,1,1,1-1A1,1,0,0,1,17,19Z" data-color="color-2"></path><path d="M23.5,7a.5.5,0,0,0,.5-.5v-1a.5.5,0,0,0-.5-.5H12.816A3,3,0,0,0,10,3H5A3,3,0,0,0,2,6V9.556a3.954,3.954,0,0,0-.588,6.466A5,5,0,0,1,6,13H18a5,5,0,0,1,4.588,3.022A3.981,3.981,0,0,0,20,9H13V7Z" fill="#0066ff"></path></g></svg>