<svg xmlns="http://www.w3.org/2000/svg" width="24" height="24" viewBox="0 0 24 24"><g class="nc-icon-wrapper" stroke-linecap="square" stroke-linejoin="miter" stroke-width="2" fill="none" stroke="#0066ff" stroke-miterlimit="10"><line x1="13" y1="13" x2="11" y2="11" stroke="#0066ff"></line><line x1="6" y1="20" x2="4" y2="18" stroke="#0066ff"></line><line x1="18" y1="4" x2="20" y2="6" stroke="#0066ff"></line><path d="M19,8.88a3.747,3.747,0,0,0,3.548-.85"></path><path d="M5,15.12a3.747,3.747,0,0,0-3.548.85"></path><path d="M12.034,7.636a3.747,3.747,0,0,0-3.548.85,3.994,3.994,0,0,0-.846,3.565C8.256,16.016,8.857,16.963,9,20a4.27,4.27,0,0,1-.566,2.434"></path><path d="M11.966,16.364a3.747,3.747,0,0,0,3.548-.85,3.994,3.994,0,0,0,.846-3.565C15.744,7.984,15.143,7.037,15,4a4.27,4.27,0,0,1,.566-2.434"></path></g></svg>